<?xml version="1.0" encoding="UTF-8" standalone="no"?>
<!-- Created with Inkscape (http://www.inkscape.org/) -->

<svg
   width="41.733002mm"
   height="5mm"
   viewBox="0 0 41.733002 5"
   version="1.1"
   id="svg1"
   inkscape:version="1.4 (86a8ad7, 2024-10-11)"
   sodipodi:docname="#.NUT Studio.svg"
   xml:space="preserve"
   inkscape:export-filename="#.NUT Studio.png"
   inkscape:export-xdpi="2540"
   inkscape:export-ydpi="2540"
   xmlns:inkscape="http://www.inkscape.org/namespaces/inkscape"
   xmlns:sodipodi="http://sodipodi.sourceforge.net/DTD/sodipodi-0.dtd"
   xmlns="http://www.w3.org/2000/svg"
   xmlns:svg="http://www.w3.org/2000/svg"><sodipodi:namedview
     id="namedview1"
     pagecolor="#ffffff"
     bordercolor="#000000"
     borderopacity="0.25"
     inkscape:showpageshadow="2"
     inkscape:pageopacity="0.0"
     inkscape:pagecheckerboard="0"
     inkscape:deskcolor="#d1d1d1"
     inkscape:document-units="mm"
     inkscape:zoom="2.8649831"
     inkscape:cx="96.510167"
     inkscape:cy="-4.1885063"
     inkscape:window-width="1920"
     inkscape:window-height="1009"
     inkscape:window-x="-8"
     inkscape:window-y="-8"
     inkscape:window-maximized="1"
     inkscape:current-layer="layer1" /><defs
     id="defs1"><rect
       x="363.00388"
       y="483.0744"
       width="1189.5358"
       height="360.21155"
       id="rect2" /><rect
       x="233.16019"
       y="442.58551"
       width="372.77707"
       height="139.61688"
       id="rect1" /></defs><g
     inkscape:label="图层 1"
     inkscape:groupmode="layer"
     id="layer1"
     transform="translate(-36.201492,-94.567164)"><path
       d="m 367.83723,514.02922 q -1.06666,0 -1.76666,-0.7 -0.66667,-0.73334 -0.66667,-1.76667 0,-1.06666 0.66667,-1.76666 0.7,-0.7 1.76666,-0.7 1.06667,0 1.73334,0.7 0.7,0.7 0.7,1.76666 0,1.03333 -0.7,1.76667 -0.66667,0.7 -1.73334,0.7 z m 7.3667,-0.33334 v -23.33331 h 2.66666 l 12.33332,16.09999 v -16.09999 h 3.83333 v 23.33331 h -2.66666 L 379.03725,497.5959 v 16.09998 z m 32.89999,0.33334 q -2.63333,0 -4.73332,-1.2 -2.1,-1.2 -3.33333,-3.26667 -1.2,-2.09999 -1.2,-4.73333 v -14.46665 h 3.83333 v 14.43332 q 0,1.7 0.7,2.96666 0.73333,1.23334 1.96666,1.93334 1.23333,0.66666 2.76666,0.66666 2.33334,0 3.83333,-1.5 1.53334,-1.49999 1.53334,-4.03333 v -14.46665 h 3.83333 v 14.49999 q 0,2.63333 -1.2,4.69999 -1.2,2.06667 -3.26667,3.26667 -2.06666,1.2 -4.73333,1.2 z m 19.56664,-0.33334 v -19.83331 h -7.59999 v -3.5 h 19.03332 v 3.5 h -7.6 v 19.83331 z m 27.39997,0.33334 q -2.76667,0 -4.7,-1 -1.93333,-1 -3.46666,-2.93333 l 2.59999,-2.6 q 0.96667,1.4 2.3,2.2 1.33333,0.76666 3.4,0.76666 1.93333,0 3.06666,-0.8 1.16667,-0.8 1.16667,-2.19999 0,-1.16667 -0.6,-1.9 -0.6,-0.73334 -1.6,-1.2 -0.96667,-0.5 -2.16666,-0.86667 -1.16667,-0.4 -2.36667,-0.86666 -1.16666,-0.5 -2.16666,-1.23334 -0.96667,-0.73333 -1.56667,-1.89999 -0.6,-1.16667 -0.6,-2.96667 0,-2.06666 1,-3.49999 1.03333,-1.46667 2.76667,-2.23334 1.73333,-0.76666 3.86666,-0.76666 2.3,0 4.09999,0.9 1.83334,0.9 2.96667,2.3 l -2.6,2.59999 q -1,-1.13333 -2.1,-1.66666 -1.06666,-0.56667 -2.46666,-0.56667 -1.73333,0 -2.73333,0.7 -0.96667,0.7 -0.96667,1.96667 0,1.06666 0.6,1.73333 0.6,0.63333 1.56667,1.1 1,0.43333 2.16666,0.83333 1.2,0.4 2.36667,0.9 1.19999,0.5 2.16666,1.3 1,0.76666 1.6,2 0.6,1.23333 0.6,3.09999 0,3.13333 -2.23333,4.96666 -2.2,1.83334 -5.96666,1.83334 z m 13.96664,-0.33334 v -12.66665 h -3.83333 v -3.33333 h 3.83333 v -6.66666 h 3.66666 v 6.66666 h 3.83333 v 3.33333 h -3.83333 v 12.66665 z m 16.73332,0.33334 q -2.03333,0 -3.63333,-0.9 -1.56666,-0.9 -2.46666,-2.46667 -0.86667,-1.6 -0.86667,-3.66666 v -9.29999 h 3.66667 v 9.13332 q 0,1.73333 0.86666,2.7 0.86667,0.96667 2.43333,0.96667 1.6,0 2.43333,-0.93334 0.86667,-0.96666 0.86667,-2.73333 v -9.13332 h 3.66666 v 9.29999 q 0,2.1 -0.9,3.7 -0.86666,1.56666 -2.43333,2.46666 -1.56666,0.86667 -3.63333,0.86667 z m 17.36666,0 q -2.16667,0 -3.93333,-1.1 -1.73333,-1.1 -2.76666,-2.96667 -1,-1.9 -1,-4.23333 0,-2.36666 1,-4.23333 1.03333,-1.89999 2.76666,-2.99999 1.76666,-1.13334 3.93333,-1.13334 1.53333,0 2.76666,0.56667 1.26667,0.56667 2.13333,1.53333 v -9.76665 h 3.66667 v 23.99997 h -3.66667 v -1.73333 q -0.86666,0.96667 -2.13333,1.53333 -1.23333,0.53334 -2.76666,0.53334 z m 0.6,-3.46667 q 2.03333,0 3.26666,-1.36666 1.26667,-1.36667 1.26667,-3.5 0,-2.16666 -1.26667,-3.5 -1.23333,-1.36666 -3.26666,-1.36666 -2,0 -3.26667,1.36666 -1.26666,1.33334 -1.26666,3.5 0,2.13333 1.26666,3.5 1.26667,1.36666 3.26667,1.36666 z m 13.89998,-15.79998 q -0.93333,0 -1.56666,-0.63334 -0.6,-0.63333 -0.6,-1.56666 0,-0.93333 0.6,-1.56667 0.63333,-0.63333 1.56666,-0.63333 0.96667,0 1.56667,0.63333 0.6,0.63334 0.6,1.56667 0,0.93333 -0.6,1.56666 -0.6,0.63334 -1.56667,0.63334 z m -1.83333,18.93331 V 497.6959 h 3.66666 v 15.99998 z m 15.09997,0.33334 q -2.33333,0 -4.23333,-1.1 -1.9,-1.13334 -3.03333,-3.03333 -1.1,-1.9 -1.1,-4.23333 0,-2.33333 1.1,-4.2 1.13333,-1.86666 3.03333,-2.96666 1.9,-1.13334 4.23333,-1.13334 2.36666,0 4.26666,1.1 1.9,1.1 3,3 1.13333,1.86667 1.13333,4.2 0,2.33333 -1.13333,4.23333 -1.1,1.89999 -3,3.03333 -1.9,1.1 -4.26666,1.1 z m 0,-3.53333 q 2.06666,0 3.33333,-1.33334 1.3,-1.36666 1.3,-3.49999 0,-2.1 -1.3,-3.43333 -1.3,-1.33334 -3.33333,-1.33334 -2.03333,0 -3.33333,1.36667 -1.26667,1.33333 -1.26667,3.4 0,2.13333 1.26667,3.49999 1.3,1.33334 3.33333,1.33334 z"
       id="text2"
       style="font-weight:500;font-size:33.3333px;font-family:Outfit;-inkscape-font-specification:'Outfit, Medium';white-space:pre"
       onmouseup=""
       transform="matrix(0.20547965,0,0,0.20547965,-32.881574,-6.0553793)"
       aria-label=".NUT Studio" /><g
       inkscape:label="图层 1"
       id="layer1-3"
       transform="translate(36.201492,94.567164)"><rect
         style="fill:#4285f4;fill-opacity:1;stroke-width:0.204944"
         id="rect3-3"
         width="1"
         height="3.0000002"
         x="0.99999994"
         y="2"
         inkscape:label="bule-buttom" /><rect
         style="fill:#ea4335;fill-opacity:1;stroke-width:0.264583"
         id="rect3-8-6"
         width="5"
         height="1"
         x="0"
         y="3"
         inkscape:label="red" /><rect
         style="fill:#fbbc05;fill-opacity:1;stroke-width:0.264583"
         id="rect3"
         width="1"
         height="5"
         x="3"
         y="0"
         inkscape:label="red" /><rect
         style="fill:#34a853;fill-opacity:1;stroke-width:0.264583"
         id="rect3-8"
         width="5"
         height="1"
         x="0"
         y="1"
         inkscape:label="green" /><rect
         style="fill:#4285f4;fill-opacity:1;stroke-width:0.167337"
         id="rect3-3-6"
         width="1"
         height="2"
         x="0.99999994"
         y="0"
         inkscape:label="bule" /></g></g></svg>
